<svg width="592" height="536" viewBox="0 0 592 536" fill="none" xmlns="http://www.w3.org/2000/svg">
<g filter="url(#filter0_d_41_33)">
<g filter="url(#filter1_d_41_33)">
<rect x="85.3105" y="184.182" width="465.246" height="326" rx="15" transform="rotate(0.806169 85.3105 184.182)" fill="#C0BFEF"/>
</g>
<rect x="109.941" y="263.537" width="133.321" height="39" rx="15" transform="rotate(0.806169 109.941 263.537)" fill="white"/>
<rect x="132.741" y="276.859" width="87.3485" height="13" rx="6.5" transform="rotate(0.806169 132.741 276.859)" fill="#28A099"/>
</g>
<g filter="url(#filter2_d_41_33)">
<rect x="34.0813" y="17.1797" width="498.474" height="315.885" rx="15" transform="rotate(-0.651474 34.0813 17.1797)" fill="#C7C6E4"/>
<rect x="63.8846" y="89.6957" width="142.843" height="37.7899" rx="15" transform="rotate(0.307551 63.8846 89.6957)" fill="white"/>
<rect x="88.4449" y="102.424" width="93.587" height="12.5966" rx="6.29832" transform="rotate(0.307551 88.4449 102.424)" fill="#28A099"/>
<rect x="63.5365" y="154.616" width="142.843" height="65.8902" rx="15" transform="rotate(0.307551 63.5365 154.616)" fill="black"/>
<rect x="88.0463" y="176.711" width="93.587" height="21.9634" rx="10.9817" transform="rotate(0.307551 88.0463 176.711)" fill="#8F8F97"/>
<rect x="224.109" y="155.478" width="259.088" height="65.8902" rx="15" transform="rotate(0.307551 224.109 155.478)" fill="white"/>
<rect x="240.508" y="177.17" width="84.6424" height="22.6835" rx="11.3417" transform="rotate(0.307551 240.508 177.17)" fill="#8CC8CB"/>
<rect x="336.503" y="177.685" width="129.028" height="22.6835" rx="11.3417" transform="rotate(0.307551 336.503 177.685)" fill="#8CC8CB"/>
<rect x="181.308" y="237.612" width="259.088" height="65.8902" rx="15" transform="rotate(0.307551 181.308 237.612)" fill="white"/>
<rect x="197.708" y="259.304" width="84.6424" height="22.6835" rx="11.3417" transform="rotate(0.307551 197.708 259.304)" fill="#8CC8CB"/>
<rect x="293.704" y="259.819" width="129.028" height="22.6835" rx="11.3417" transform="rotate(0.307551 293.704 259.819)" fill="#8CC8CB"/>
<rect x="63.0624" y="243.099" width="99.4978" height="45.8959" rx="10.4483" transform="rotate(0.307551 63.0624 243.099)" fill="black"/>
<rect x="80.1351" y="258.489" width="65.1882" height="15.2986" rx="7.64932" transform="rotate(0.307551 80.1351 258.489)" fill="#8F8F97"/>
</g>
<g filter="url(#filter3_d_41_33)">
<g filter="url(#filter4_d_41_33)">
<rect x="35" y="161.119" width="481.008" height="326" rx="15" transform="rotate(-3.66366 35 161.119)" fill="#E1C5E1"/>
</g>
<rect x="66.6111" y="238.257" width="137.838" height="39" rx="15" transform="rotate(-3.66366 66.6111 238.257)" fill="white"/>
<rect x="91.1578" y="249.712" width="90.3078" height="13" rx="6.5" transform="rotate(-3.66366 91.1578 249.712)" fill="#28A099"/>
</g>
<g filter="url(#filter5_d_41_33)">
<rect x="45.9902" y="32.0914" width="490.54" height="325.755" rx="15" transform="rotate(3.16582 45.9902 32.0914)" fill="#ECC5BA"/>
<rect x="71.3214" y="124.314" width="140.57" height="37.7899" rx="15" transform="rotate(3.16582 71.3214 124.314)" fill="white"/>
<rect x="94.8253" y="138.23" width="92.0975" height="12.5966" rx="6.29832" transform="rotate(3.16582 94.8253 138.23)" fill="#28A099"/>
<rect x="67.7365" y="189.136" width="140.57" height="65.8902" rx="15" transform="rotate(3.16582 67.7365 189.136)" fill="black"/>
<rect x="90.7228" y="212.404" width="92.0975" height="21.9634" rx="10.9817" transform="rotate(3.16582 90.7228 212.404)" fill="#8F8F97"/>
<rect x="225.515" y="197.863" width="254.965" height="65.8902" rx="15" transform="rotate(3.16582 225.515 197.863)" fill="white"/>
<rect x="240.548" y="220.331" width="83.2952" height="22.6835" rx="11.3417" transform="rotate(3.16582 240.548 220.331)" fill="#8CC8CB"/>
<rect x="334.873" y="225.548" width="126.974" height="22.6835" rx="11.3417" transform="rotate(3.16582 334.873 225.548)" fill="#8CC8CB"/>
<rect x="179.344" y="277.797" width="254.965" height="65.8902" rx="15" transform="rotate(3.16582 179.344 277.797)" fill="white"/>
<rect x="194.378" y="300.266" width="83.2952" height="22.6835" rx="11.3417" transform="rotate(3.16582 194.378 300.266)" fill="#8CC8CB"/>
<rect x="288.703" y="305.483" width="126.974" height="22.6835" rx="11.3417" transform="rotate(3.16582 288.703 305.483)" fill="#8CC8CB"/>
<rect x="62.8507" y="277.485" width="97.9142" height="45.8959" rx="10.4483" transform="rotate(3.16582 62.8507 277.485)" fill="black"/>
<rect x="78.8629" y="293.692" width="64.1507" height="15.2986" rx="7.64932" transform="rotate(3.16582 78.8629 293.692)" fill="#8F8F97"/>
</g>
<g filter="url(#filter6_d_41_33)">
<rect x="15" y="89.3829" width="562" height="341" rx="15" fill="#28A099"/>
<rect x="46.0979" y="172.018" width="161.047" height="40.7945" rx="15" fill="white"/>
<rect x="73.865" y="185.616" width="105.514" height="13.5982" rx="6.79908" fill="#28A099"/>
<rect x="46.0979" y="242.101" width="161.047" height="71.1288" rx="15" fill="black"/>
<rect x="73.865" y="265.81" width="105.514" height="23.7096" rx="11.8548" fill="#8F8F97"/>
<rect x="227.139" y="242.101" width="292.107" height="71.1288" rx="15" fill="white"/>
<rect x="245.759" y="265.422" width="95.4293" height="24.487" rx="12.2435" fill="#8CC8CB"/>
<rect x="353.989" y="265.422" width="145.471" height="24.487" rx="12.2435" fill="#8CC8CB"/>
<rect x="179.38" y="331.012" width="292.107" height="71.1288" rx="15" fill="white"/>
<rect x="198" y="354.333" width="95.4293" height="24.487" rx="12.2435" fill="#8CC8CB"/>
<rect x="306.231" y="354.333" width="145.471" height="24.487" rx="12.2435" fill="#8CC8CB"/>
<rect x="46.0979" y="337.62" width="112.178" height="49.5449" rx="10.4483" fill="black"/>
<rect x="65.4396" y="354.135" width="73.4958" height="16.515" rx="8.25749" fill="#8F8F97"/>
</g>
<defs>
<filter id="filter0_d_41_33" x="76.9333" y="184.391" width="477.367" height="340.095" filterUnits="userSpaceOnUse" color-interpolation-filters="sRGB">
<feFlood flood-opacity="0" result="BackgroundImageFix"/>
<feColorMatrix in="SourceAlpha" type="matrix" values="0 0 0 0 0 0 0 0 0 0 0 0 0 0 0 0 0 0 127 0" result="hardAlpha"/>
<feOffset dy="4"/>
<feGaussianBlur stdDeviation="2"/>
<feComposite in2="hardAlpha" operator="out"/>
<feColorMatrix type="matrix" values="0 0 0 0 0 0 0 0 0 0 0 0 0 0 0 0 0 0 0.25 0"/>
<feBlend mode="normal" in2="BackgroundImageFix" result="effect1_dropShadow_41_33"/>
<feBlend mode="normal" in="SourceGraphic" in2="effect1_dropShadow_41_33" result="shape"/>
</filter>
<filter id="filter1_d_41_33" x="65.9333" y="173.391" width="499.367" height="362.095" filterUnits="userSpaceOnUse" color-interpolation-filters="sRGB">
<feFlood flood-opacity="0" result="BackgroundImageFix"/>
<feColorMatrix in="SourceAlpha" type="matrix" values="0 0 0 0 0 0 0 0 0 0 0 0 0 0 0 0 0 0 127 0" result="hardAlpha"/>
<feOffset dy="4"/>
<feGaussianBlur stdDeviation="7.5"/>
<feComposite in2="hardAlpha" operator="out"/>
<feColorMatrix type="matrix" values="0 0 0 0 0 0 0 0 0 0 0 0 0 0 0 0 0 0 0.25 0"/>
<feBlend mode="normal" in2="BackgroundImageFix" result="effect1_dropShadow_41_33"/>
<feBlend mode="normal" in="SourceGraphic" in2="effect1_dropShadow_41_33" result="shape"/>
</filter>
<filter id="filter2_d_41_33" x="19.2509" y="0.681519" width="531.694" height="351.193" filterUnits="userSpaceOnUse" color-interpolation-filters="sRGB">
<feFlood flood-opacity="0" result="BackgroundImageFix"/>
<feColorMatrix in="SourceAlpha" type="matrix" values="0 0 0 0 0 0 0 0 0 0 0 0 0 0 0 0 0 0 127 0" result="hardAlpha"/>
<feOffset dy="4"/>
<feGaussianBlur stdDeviation="7.5"/>
<feComposite in2="hardAlpha" operator="out"/>
<feColorMatrix type="matrix" values="0 0 0 0 0 0 0 0 0 0 0 0 0 0 0 0 0 0 0.25 0"/>
<feBlend mode="normal" in2="BackgroundImageFix" result="effect1_dropShadow_41_33"/>
<feBlend mode="normal" in="SourceGraphic" in2="effect1_dropShadow_41_33" result="shape"/>
</filter>
<filter id="filter3_d_41_33" x="31.9272" y="131.31" width="507.002" height="362.215" filterUnits="userSpaceOnUse" color-interpolation-filters="sRGB">
<feFlood flood-opacity="0" result="BackgroundImageFix"/>
<feColorMatrix in="SourceAlpha" type="matrix" values="0 0 0 0 0 0 0 0 0 0 0 0 0 0 0 0 0 0 127 0" result="hardAlpha"/>
<feOffset dy="4"/>
<feGaussianBlur stdDeviation="2"/>
<feComposite in2="hardAlpha" operator="out"/>
<feColorMatrix type="matrix" values="0 0 0 0 0 0 0 0 0 0 0 0 0 0 0 0 0 0 0.25 0"/>
<feBlend mode="normal" in2="BackgroundImageFix" result="effect1_dropShadow_41_33"/>
<feBlend mode="normal" in="SourceGraphic" in2="effect1_dropShadow_41_33" result="shape"/>
</filter>
<filter id="filter4_d_41_33" x="20.9272" y="120.31" width="529.002" height="384.215" filterUnits="userSpaceOnUse" color-interpolation-filters="sRGB">
<feFlood flood-opacity="0" result="BackgroundImageFix"/>
<feColorMatrix in="SourceAlpha" type="matrix" values="0 0 0 0 0 0 0 0 0 0 0 0 0 0 0 0 0 0 127 0" result="hardAlpha"/>
<feOffset dy="4"/>
<feGaussianBlur stdDeviation="7.5"/>
<feComposite in2="hardAlpha" operator="out"/>
<feColorMatrix type="matrix" values="0 0 0 0 0 0 0 0 0 0 0 0 0 0 0 0 0 0 0.25 0"/>
<feBlend mode="normal" in2="BackgroundImageFix" result="effect1_dropShadow_41_33"/>
<feBlend mode="normal" in="SourceGraphic" in2="effect1_dropShadow_41_33" result="shape"/>
</filter>
<filter id="filter5_d_41_33" x="13.8052" y="21.8965" width="536.172" height="380.738" filterUnits="userSpaceOnUse" color-interpolation-filters="sRGB">
<feFlood flood-opacity="0" result="BackgroundImageFix"/>
<feColorMatrix in="SourceAlpha" type="matrix" values="0 0 0 0 0 0 0 0 0 0 0 0 0 0 0 0 0 0 127 0" result="hardAlpha"/>
<feOffset dy="4"/>
<feGaussianBlur stdDeviation="7.5"/>
<feComposite in2="hardAlpha" operator="out"/>
<feColorMatrix type="matrix" values="0 0 0 0 0 0 0 0 0 0 0 0 0 0 0 0 0 0 0.25 0"/>
<feBlend mode="normal" in2="BackgroundImageFix" result="effect1_dropShadow_41_33"/>
<feBlend mode="normal" in="SourceGraphic" in2="effect1_dropShadow_41_33" result="shape"/>
</filter>
<filter id="filter6_d_41_33" x="0" y="78.3829" width="592" height="371" filterUnits="userSpaceOnUse" color-interpolation-filters="sRGB">
<feFlood flood-opacity="0" result="BackgroundImageFix"/>
<feColorMatrix in="SourceAlpha" type="matrix" values="0 0 0 0 0 0 0 0 0 0 0 0 0 0 0 0 0 0 127 0" result="hardAlpha"/>
<feOffset dy="4"/>
<feGaussianBlur stdDeviation="7.5"/>
<feComposite in2="hardAlpha" operator="out"/>
<feColorMatrix type="matrix" values="0 0 0 0 0 0 0 0 0 0 0 0 0 0 0 0 0 0 0.25 0"/>
<feBlend mode="normal" in2="BackgroundImageFix" result="effect1_dropShadow_41_33"/>
<feBlend mode="normal" in="SourceGraphic" in2="effect1_dropShadow_41_33" result="shape"/>
</filter>
</defs>
</svg>
